<svg width="24" height="14" viewBox="0 0 24 14" fill="none" xmlns="http://www.w3.org/2000/svg">
<path d="M18.8572 5.14258C18.5181 5.14258 18.1867 5.24312 17.9048 5.43149C17.6228 5.61986 17.4031 5.88759 17.2734 6.20084C17.1436 6.51408 17.1097 6.85877 17.1758 7.1913C17.242 7.52384 17.4052 7.8293 17.645 8.06905C17.8847 8.30879 18.1902 8.47206 18.5227 8.53821C18.8553 8.60436 19.2 8.57041 19.5132 8.44066C19.8264 8.31091 20.0942 8.09118 20.2825 7.80927C20.4709 7.52736 20.5715 7.19592 20.5715 6.85686C20.5715 6.40221 20.3908 5.96617 20.0693 5.64468C19.7479 5.32319 19.3118 5.14258 18.8572 5.14258Z" fill="white"/>
<path d="M12 10.2859C11.3218 10.2859 10.659 10.0848 10.0951 9.70804C9.53132 9.3313 9.09187 8.79583 8.83237 8.16934C8.57287 7.54285 8.50497 6.85348 8.63726 6.1884C8.76955 5.52333 9.09609 4.91241 9.57559 4.43292C10.0551 3.95342 10.666 3.62688 11.3311 3.49459C11.9962 3.3623 12.6855 3.4302 13.312 3.6897C13.9385 3.9492 14.474 4.38865 14.8507 4.95247C15.2274 5.5163 15.4285 6.17918 15.4285 6.85729C15.4274 7.76625 15.0658 8.63766 14.4231 9.2804C13.7803 9.92314 12.9089 10.2847 12 10.2859ZM12 5.143C11.6609 5.143 11.3295 5.24354 11.0475 5.43191C10.7656 5.62028 10.5459 5.88801 10.4162 6.20126C10.2864 6.5145 10.2525 6.85919 10.3186 7.19173C10.3848 7.52426 10.548 7.82972 10.7878 8.06947C11.0275 8.30922 11.333 8.47249 11.6655 8.53863C11.9981 8.60478 12.3427 8.57083 12.656 8.44108C12.9692 8.31133 13.237 8.0916 13.4253 7.80969C13.6137 7.52778 13.7142 7.19634 13.7142 6.85729C13.7138 6.40277 13.533 5.967 13.2116 5.6456C12.8902 5.32421 12.4545 5.14345 12 5.143Z" fill="white"/>
<path d="M5.14291 5.14258C4.80385 5.14258 4.47241 5.24312 4.1905 5.43149C3.90859 5.61986 3.68886 5.88759 3.55911 6.20084C3.42936 6.51408 3.39541 6.85877 3.46156 7.1913C3.52771 7.52384 3.69098 7.8293 3.93072 8.06905C4.17047 8.30879 4.47593 8.47206 4.80847 8.53821C5.14101 8.60436 5.48569 8.57041 5.79894 8.44066C6.11218 8.31091 6.37992 8.09118 6.56828 7.80927C6.75665 7.52736 6.85719 7.19592 6.85719 6.85686C6.85719 6.40221 6.67658 5.96617 6.35509 5.64468C6.0336 5.32319 5.59756 5.14258 5.14291 5.14258Z" fill="white"/>
<path d="M22.2857 13.7143H1.71429C1.25998 13.7132 0.824599 13.5322 0.503353 13.2109C0.182107 12.8897 0.00113153 12.4543 0 12V1.71429C0.00113153 1.25998 0.182107 0.824598 0.503353 0.503352C0.824599 0.182106 1.25998 0.00113153 1.71429 0H22.2857C22.74 0.00113153 23.1754 0.182106 23.4966 0.503352C23.8179 0.824598 23.9989 1.25998 24 1.71429V12C23.9993 12.4544 23.8185 12.8901 23.4971 13.2114C23.1758 13.5328 22.7402 13.7136 22.2857 13.7143ZM22.2857 1.71429H1.71429V12H22.2857V1.71429Z" fill="white"/>
</svg>
