<svg width="24" height="24" viewBox="0 0 24 24" fill="none" xmlns="http://www.w3.org/2000/svg">
<g clip-path="url(#clip0)">
<path d="M18.8572 11.1421C18.5181 11.1421 18.1867 11.2426 17.9048 11.431C17.6228 11.6194 17.4031 11.8871 17.2734 12.2003C17.1436 12.5136 17.1097 12.8583 17.1758 13.1908C17.242 13.5234 17.4052 13.8288 17.645 14.0686C17.8847 14.3083 18.1902 14.4716 18.5227 14.5377C18.8553 14.6039 19.2 14.5699 19.5132 14.4402C19.8264 14.3104 20.0942 14.0907 20.2825 13.8088C20.4709 13.5269 20.5715 13.1954 20.5715 12.8564C20.5715 12.4017 20.3908 11.9657 20.0693 11.6442C19.7479 11.3227 19.3118 11.1421 18.8572 11.1421Z" fill="white"/>
<path d="M12 16.2863C11.3219 16.2863 10.659 16.0853 10.0952 15.7085C9.53135 15.3318 9.0919 14.7963 8.8324 14.1698C8.5729 13.5433 8.505 12.854 8.63729 12.1889C8.76958 11.5238 9.09612 10.9129 9.57562 10.4334C10.0551 9.95391 10.666 9.62737 11.3311 9.49508C11.9962 9.36279 12.6856 9.43068 13.312 9.69019C13.9385 9.94969 14.474 10.3891 14.8507 10.953C15.2275 11.5168 15.4286 12.1797 15.4286 12.8578C15.4274 13.7667 15.0658 14.6382 14.4231 15.2809C13.7804 15.9236 12.909 16.2852 12 16.2863ZM12 11.1435C11.6609 11.1435 11.3295 11.244 11.0476 11.4324C10.7657 11.6208 10.5459 11.8885 10.4162 12.2017C10.2864 12.515 10.2525 12.8597 10.3186 13.1922C10.3848 13.5248 10.5481 13.8302 10.7878 14.07C11.0275 14.3097 11.333 14.473 11.6655 14.5391C11.9981 14.6053 12.3428 14.5713 12.656 14.4416C12.9693 14.3118 13.237 14.0921 13.4254 13.8102C13.6137 13.5283 13.7143 13.1968 13.7143 12.8578C13.7138 12.4033 13.5331 11.9675 13.2117 11.6461C12.8903 11.3247 12.4545 11.1439 12 11.1435Z" fill="white"/>
<path d="M5.14288 11.1421C4.80382 11.1421 4.47238 11.2426 4.19047 11.431C3.90856 11.6194 3.68883 11.8871 3.55908 12.2003C3.42933 12.5136 3.39538 12.8583 3.46153 13.1908C3.52768 13.5234 3.69095 13.8288 3.93069 14.0686C4.17044 14.3083 4.4759 14.4716 4.80844 14.5377C5.14097 14.6039 5.48566 14.5699 5.79891 14.4402C6.11215 14.3104 6.37989 14.0907 6.56825 13.8088C6.75662 13.5269 6.85716 13.1954 6.85716 12.8564C6.85716 12.4017 6.67655 11.9657 6.35506 11.6442C6.03357 11.3227 5.59753 11.1421 5.14288 11.1421Z" fill="white"/>
<path d="M22.2857 19.7143H1.71429C1.25998 19.7132 0.824599 19.5322 0.503353 19.2109C0.182107 18.8897 0.00113153 18.4543 0 18V7.71429C0.00113153 7.25998 0.182107 6.8246 0.503353 6.50335C0.824599 6.18211 1.25998 6.00113 1.71429 6H22.2857C22.74 6.00113 23.1754 6.18211 23.4966 6.50335C23.8179 6.8246 23.9989 7.25998 24 7.71429V18C23.9993 18.4544 23.8185 18.8901 23.4971 19.2114C23.1758 19.5328 22.7402 19.7136 22.2857 19.7143ZM22.2857 7.71429H1.71429V18H22.2857V7.71429Z" fill="white"/>
</g>
<defs>
<clipPath id="clip0">
<rect width="24" height="24" fill="white"/>
</clipPath>
</defs>
</svg>
