<svg width="14" height="14" viewBox="0 0 14 14" fill="none" xmlns="http://www.w3.org/2000/svg">
<path d="M12.9996 10.0021V11.8122C13.0003 11.9802 12.9659 12.1466 12.8986 12.3005C12.8313 12.4545 12.7325 12.5927 12.6087 12.7063C12.4849 12.8199 12.3387 12.9064 12.1795 12.9602C12.0203 13.0141 11.8517 13.034 11.6843 13.0189C9.82768 12.8172 8.04426 12.1828 6.47734 11.1666C5.01953 10.2403 3.78356 9.00429 2.8572 7.54648C1.83752 5.97244 1.20294 4.18035 1.0049 2.31538C0.98982 2.14853 1.00965 1.98037 1.06312 1.8216C1.11659 1.66284 1.20254 1.51695 1.31548 1.39322C1.42843 1.26949 1.5659 1.17063 1.71915 1.10294C1.87239 1.03526 2.03805 1.00022 2.20558 1.00006H4.01565C4.30846 0.997177 4.59233 1.10087 4.81435 1.2918C5.03636 1.48274 5.18138 1.74789 5.22236 2.03783C5.29876 2.61709 5.44044 3.18585 5.64471 3.73326C5.72589 3.94922 5.74346 4.18392 5.69534 4.40955C5.64721 4.63519 5.53542 4.8423 5.3732 5.00635L4.60694 5.77261C5.46585 7.28314 6.71655 8.53384 8.22708 9.39275L8.99334 8.62649C9.15739 8.46427 9.3645 8.35247 9.59013 8.30435C9.81577 8.25623 10.0505 8.2738 10.2664 8.35498C10.8138 8.55924 11.3826 8.70093 11.9619 8.77733C12.2549 8.81867 12.5226 8.9663 12.714 9.19213C12.9053 9.41796 13.007 9.70624 12.9996 10.0021Z" stroke="#374952" stroke-width="1.2" stroke-linecap="round" stroke-linejoin="round"/>
</svg>
