<svg width="24" height="24" viewBox="0 0 24 24" fill="none" xmlns="http://www.w3.org/2000/svg">
<path d="M16.0909 19.7275V18.0911C16.0909 17.2231 15.7461 16.3907 15.1324 15.7769C14.5186 15.1632 13.6862 14.8184 12.8182 14.8184H6.27273C5.40475 14.8184 4.57232 15.1632 3.95856 15.7769C3.3448 16.3907 3 17.2231 3 18.0911V19.7275" stroke="white" stroke-width="1.5" stroke-linecap="round" stroke-linejoin="round"/>
<path d="M9.54546 11.5455C11.3529 11.5455 12.8182 10.0802 12.8182 8.27273C12.8182 6.46525 11.3529 5 9.54546 5C7.73799 5 6.27274 6.46525 6.27274 8.27273C6.27274 10.0802 7.73799 11.5455 9.54546 11.5455Z" stroke="white" stroke-width="1.5" stroke-linecap="round" stroke-linejoin="round"/>
<path d="M21 19.7275V18.0912C20.9994 17.366 20.7581 16.6616 20.3138 16.0885C19.8696 15.5154 19.2475 15.1061 18.5454 14.9248" stroke="white" stroke-width="1.5" stroke-linecap="round" stroke-linejoin="round"/>
<path d="M15.2727 5.10645C15.9767 5.28669 16.6007 5.69611 17.0463 6.27015C17.4918 6.8442 17.7337 7.55022 17.7337 8.2769C17.7337 9.00358 17.4918 9.7096 17.0463 10.2836C16.6007 10.8577 15.9767 11.2671 15.2727 11.4474" stroke="white" stroke-width="1.5" stroke-linecap="round" stroke-linejoin="round"/>
</svg>
