<svg width="9" height="16" viewBox="0 0 9 16" fill="none" xmlns="http://www.w3.org/2000/svg">
<path d="M4.68632 7.02222C2.67916 6.49778 2.03368 5.95556 2.03368 5.11111C2.03368 4.14222 2.92674 3.46667 4.42105 3.46667C5.67663 3.46667 6.30442 3.94667 6.53432 4.71111C6.64042 5.06667 6.93221 5.33333 7.30358 5.33333H7.56884C8.15242 5.33333 8.568 4.75556 8.36463 4.20444C7.99326 3.15556 7.12674 2.28444 5.74737 1.94667V1.33333C5.74737 0.595556 5.15495 0 4.42105 0C3.68716 0 3.09474 0.595556 3.09474 1.33333V1.92C1.37937 2.29333 0 3.41333 0 5.12889C0 7.18222 1.68884 8.20444 4.15579 8.8C6.36632 9.33333 6.80842 10.1156 6.80842 10.9422C6.80842 11.5556 6.37516 12.5333 4.42105 12.5333C2.96211 12.5333 2.21053 12.0089 1.91874 11.2622C1.78611 10.9156 1.48547 10.6667 1.12295 10.6667H0.875368C0.282947 10.6667 -0.132632 11.2711 0.088421 11.8222C0.592421 13.0578 1.76842 13.7867 3.09474 14.0711V14.6667C3.09474 15.4044 3.68716 16 4.42105 16C5.15495 16 5.74737 15.4044 5.74737 14.6667V14.0889C7.47158 13.76 8.8421 12.7556 8.8421 10.9333C8.8421 8.40889 6.69347 7.54667 4.68632 7.02222Z" fill="white"/>
</svg>
