<svg width="135" height="32" viewBox="0 0 135 32" fill="none" xmlns="http://www.w3.org/2000/svg">
<path d="M23.5192 0H7.83931C6.79917 0.0105222 5.77128 0.225827 4.81435 0.63362C3.85741 1.04141 2.99018 1.63371 2.26216 2.37668C1.53415 3.11965 0.959608 3.99875 0.571357 4.96378C0.183106 5.92881 -0.0112537 6.96086 -0.000624 8.00101V23.999C-0.0210213 26.0993 0.793284 28.1219 2.26335 29.6222C3.73342 31.1224 5.73898 31.9777 7.83931 32H23.5192C25.6195 31.9777 27.6251 31.1224 29.0952 29.6222C30.5652 28.1219 31.3795 26.0993 31.3591 23.999V8.00101C31.3698 6.96086 31.1754 5.92881 30.7872 4.96378C30.3989 3.99875 29.8244 3.11965 29.0963 2.37668C28.3683 1.63371 27.5011 1.04141 26.5442 0.63362C25.5872 0.225827 24.5593 0.0105222 23.5192 0V0ZM23.5192 2.35963C24.9987 2.37663 26.4111 2.97961 27.4467 4.03637C28.4824 5.09313 29.0567 6.51742 29.0438 7.99698V23.999C29.0567 25.4785 28.4824 26.9028 27.4467 27.9596C26.4111 29.0164 24.9987 29.6193 23.5192 29.6363H7.83931C6.35944 29.6193 4.94662 29.0165 3.91036 27.9598C2.8741 26.9032 2.29887 25.4789 2.31069 23.999V8.00101C2.29887 6.52108 2.8741 5.09679 3.91036 4.04015C4.94662 2.98351 6.35944 2.38066 7.83931 2.36366L23.5192 2.35963Z" fill="#FCFCFC"/>
<path d="M46.3793 11.6775C47.3296 12.5177 47.8047 13.7888 47.8047 15.4907V22.0139H44.6961V20.5764C44.0706 21.6502 42.9096 22.1804 41.213 22.167C40.4304 22.1927 39.6514 22.0485 38.9299 21.7442C38.3247 21.4798 37.8097 21.0446 37.4481 20.4919C37.1056 19.9591 36.9277 19.3373 36.9367 18.704C36.9186 18.2191 37.0192 17.7371 37.2297 17.2999C37.4402 16.8627 37.7543 16.4836 38.1447 16.1954C38.95 15.586 40.1862 15.2827 41.8533 15.2854H44.4908C44.5099 14.9754 44.4607 14.6651 44.3465 14.3763C44.2324 14.0876 44.0562 13.8274 43.8304 13.6143C43.2643 13.1857 42.5614 12.9781 41.8533 13.0304C41.2434 13.0313 40.6374 13.1277 40.0574 13.3163C39.516 13.4846 39.0088 13.7478 38.5595 14.0935L37.3515 11.7781C38.0332 11.3107 38.7906 10.9647 39.5903 10.7554C40.4669 10.5165 41.3715 10.396 42.2801 10.397C44.0653 10.397 45.4317 10.8238 46.3793 11.6775ZM43.5606 19.5617C44.0012 19.2989 44.3338 18.8878 44.4988 18.402V17.2343H42.2237C40.8627 17.2343 40.1822 17.6799 40.1822 18.5711C40.1782 18.7638 40.2204 18.9545 40.3051 19.1276C40.3899 19.3006 40.5148 19.4508 40.6694 19.5657C41.0748 19.8349 41.5568 19.9649 42.0425 19.9362C42.5722 19.947 43.0946 19.8118 43.5525 19.5456L43.5606 19.5617Z" fill="#FCFCFC"/>
<path d="M52.3186 21.4138C51.3814 20.9409 50.5948 20.2158 50.0475 19.32C49.4991 18.4037 49.22 17.3515 49.2422 16.2838C49.2199 15.215 49.499 14.1614 50.0475 13.2437C50.5948 12.3479 51.3814 11.6227 52.3186 11.1498C53.3366 10.6361 54.4643 10.3777 55.6044 10.3968C56.7028 10.3705 57.7893 10.63 58.7573 11.1498C59.6355 11.6301 60.3284 12.3896 60.7263 13.3081L58.1533 14.6893C57.9167 14.2082 57.5478 13.8045 57.09 13.5256C56.6321 13.2468 56.1041 13.1043 55.5681 13.1149C55.1715 13.1036 54.7767 13.1731 54.4077 13.3192C54.0388 13.4653 53.7034 13.6848 53.4219 13.9645C53.1313 14.2739 52.9062 14.6388 52.7602 15.0374C52.6142 15.436 52.5503 15.8599 52.5723 16.2838C52.5506 16.7071 52.6146 17.1304 52.7607 17.5283C52.9067 17.9262 53.1316 18.2904 53.4219 18.5992C53.7028 18.8796 54.0381 19.0997 54.4072 19.2458C54.7763 19.3919 55.1714 19.461 55.5681 19.4488C56.1031 19.462 56.6305 19.3205 57.0869 19.0412C57.5434 18.7619 57.9095 18.3567 58.1412 17.8744L60.7142 19.2797C60.3046 20.1824 59.6139 20.9283 58.7452 21.4058C57.7786 21.9302 56.6916 22.1926 55.5923 22.1668C54.4562 22.184 53.3329 21.9257 52.3186 21.4138Z" fill="#FCFCFC"/>
<path d="M70.9017 11.6775C71.852 12.5177 72.3272 13.7888 72.3272 15.4907V22.0139H69.2226V20.5764C68.6025 21.6502 67.4415 22.1804 65.7395 22.167C64.9553 22.187 64.1762 22.0359 63.4564 21.724C62.855 21.4648 62.3417 21.0368 61.9786 20.4919C61.6361 19.9591 61.4582 19.3373 61.4672 18.704C61.4501 18.2193 61.5512 17.7376 61.7616 17.3006C61.972 16.8636 62.2856 16.4843 62.6752 16.1954C63.4805 15.586 64.7167 15.2827 66.3838 15.2854H69.0213C69.0404 14.9754 68.9912 14.6651 68.877 14.3763C68.7629 14.0876 68.5867 13.8274 68.3609 13.6143C67.7948 13.1857 67.0919 12.9781 66.3838 13.0304C65.7739 13.0313 65.1679 13.1277 64.5879 13.3163C64.0437 13.4838 63.5337 13.7469 63.0819 14.0935L61.894 11.7781C62.5773 11.3107 63.336 10.9647 64.1369 10.7554C65.0121 10.5163 65.9154 10.3957 66.8227 10.397C68.5944 10.397 69.9541 10.8238 70.9017 11.6775ZM68.083 19.5617C68.5224 19.2985 68.8536 18.8873 69.0172 18.402V17.2343H66.7422C65.3811 17.2343 64.7006 17.6799 64.7006 18.5711C64.6954 18.7675 64.7381 18.9622 64.8252 19.1383C64.9122 19.3144 65.0408 19.4667 65.1999 19.5818C65.6053 19.851 66.0873 19.981 66.573 19.9523C67.1027 19.9562 67.6234 19.8156 68.079 19.5456L68.083 19.5617Z" fill="#FCFCFC"/>
<path d="M86.6702 6.229V21.9975H83.5052V20.6807C82.6838 21.6713 81.4932 22.1666 79.9336 22.1666C78.9146 22.182 77.9089 21.9337 77.0142 21.4458C76.1461 20.9697 75.4333 20.2541 74.9606 19.3842C74.4508 18.4317 74.1956 17.3637 74.2197 16.2836C74.1962 15.2023 74.4513 14.1332 74.9606 13.179C75.4333 12.3091 76.1461 11.5935 77.0142 11.1174C77.9096 10.6312 78.9148 10.383 79.9336 10.3966C80.5705 10.3615 81.2073 10.467 81.7988 10.7057C82.3904 10.9444 82.9221 11.3104 83.3562 11.7778V6.229H86.6702ZM82.5912 18.5869C82.8747 18.2768 83.094 17.9136 83.2364 17.5182C83.3787 17.1229 83.4414 16.7033 83.4207 16.2836C83.4417 15.8633 83.3792 15.443 83.2368 15.047C83.0944 14.6509 82.875 14.287 82.5912 13.9763C82.3242 13.6945 82.0008 13.4721 81.6421 13.3236C81.2834 13.1751 80.8974 13.1039 80.5094 13.1146C80.1177 13.104 79.7282 13.1752 79.3656 13.3235C79.003 13.4719 78.6753 13.6942 78.4034 13.9763C78.1201 14.2872 77.9013 14.6513 77.7596 15.0473C77.6179 15.4433 77.5562 15.8636 77.578 16.2836C77.5565 16.703 77.6184 17.1225 77.7601 17.5179C77.9018 17.9132 78.1204 18.2766 78.4034 18.5869C78.6753 18.869 79.003 19.0913 79.3656 19.2397C79.7282 19.388 80.1177 19.4592 80.5094 19.4486C80.8974 19.4593 81.2834 19.3881 81.6421 19.2396C82.0008 19.0911 82.3242 18.8687 82.5912 18.5869Z" fill="#FCFCFC"/>
<path d="M100.019 17.2184H91.3693C91.5056 17.8999 91.9012 18.5019 92.4726 18.8975C93.1087 19.323 93.8621 19.5385 94.6269 19.5136C95.1756 19.5255 95.7218 19.4354 96.2376 19.2478C96.7176 19.0558 97.1544 18.7697 97.5221 18.4062L99.2858 20.3189C98.212 21.5511 96.6389 22.1672 94.5665 22.1672C93.3833 22.1914 92.2114 21.9333 91.1478 21.4142C90.1972 20.9517 89.4002 20.2246 88.8526 19.3203C88.3074 18.4027 88.0286 17.3514 88.0473 16.2842C88.0346 15.2203 88.3131 14.1732 88.8526 13.2561C89.3623 12.37 90.1063 11.6413 91.0029 11.1502C91.9528 10.6607 93.0049 10.4027 94.0734 10.3971C95.1419 10.3915 96.1967 10.6385 97.1516 11.118C98.0489 11.5893 98.7913 12.3093 99.2898 13.1917C99.82 14.1492 100.087 15.2302 100.063 16.3245C100.074 16.3701 100.059 16.6681 100.019 17.2184ZM92.2592 13.542C91.7363 13.9892 91.4025 14.618 91.325 15.3017H96.9624C96.8771 14.6232 96.54 14.0016 96.0179 13.5601C95.4958 13.1185 94.8269 12.8893 94.1437 12.9179C93.4611 12.8934 92.7923 13.1149 92.2592 13.542Z" fill="#FCFCFC"/>
<path d="M119.918 11.6772C120.759 12.5174 121.18 13.7818 121.183 15.4703V21.9976H117.869V15.9576C117.921 15.2413 117.722 14.5292 117.305 13.9442C117.106 13.7166 116.857 13.5376 116.578 13.4211C116.299 13.3045 115.996 13.2534 115.694 13.2718C115.35 13.2557 115.006 13.3151 114.687 13.4459C114.367 13.5766 114.081 13.7756 113.846 14.0288C113.349 14.6647 113.107 15.4627 113.166 16.2676V21.9976H109.852V15.9576C109.852 14.1617 109.13 13.2624 107.685 13.2597C107.344 13.2444 107.003 13.3042 106.687 13.435C106.371 13.5658 106.088 13.7644 105.857 14.0167C105.402 14.516 105.177 15.265 105.177 16.2555V21.9976H101.875V10.5658H105.04V11.8826C105.469 11.3999 106.004 11.0224 106.602 10.7793C107.241 10.5196 107.926 10.3896 108.616 10.3967C109.375 10.3834 110.128 10.546 110.814 10.8719C111.455 11.1846 111.998 11.6664 112.385 12.2651C112.854 11.6626 113.463 11.1843 114.16 10.8719C114.898 10.5413 115.699 10.3751 116.508 10.3846C117.134 10.3561 117.76 10.456 118.347 10.6783C118.933 10.9006 119.468 11.2405 119.918 11.6772Z" fill="#FCFCFC"/>
<path d="M134.87 10.5659L129.703 22.6983C129.18 24.019 128.532 24.9452 127.758 25.4848C126.933 26.0372 125.956 26.3187 124.964 26.2901C124.366 26.2884 123.771 26.1961 123.2 26.0163C122.678 25.8636 122.194 25.6029 121.779 25.2512L122.987 22.8916C123.246 23.1206 123.545 23.3007 123.869 23.4231C124.183 23.5474 124.517 23.6116 124.855 23.6124C125.25 23.6303 125.64 23.5155 125.963 23.2862C126.3 22.9872 126.561 22.6116 126.724 22.1909L126.768 22.0822L121.815 10.5659H125.23L128.451 18.3213L131.672 10.5659H134.87Z" fill="#FCFCFC"/>
<path d="M14.7457 5.9917H17.7174L10.6868 26.0083H7.73122L14.7457 5.9917Z" fill="#DA0175"/>
<path d="M20.673 5.9917H23.6285L16.6141 26.0083H13.6585L20.673 5.9917Z" fill="#DA0175"/>
</svg>
